<svg xmlns="http://www.w3.org/2000/svg" xmlns:xlink="http://www.w3.org/1999/xlink" width="150" zoomAndPan="magnify" viewBox="0 0 112.5 37.5" height="50" preserveAspectRatio="xMidYMid meet" version="1.0"><path fill="#d9d9d9" d="M 22.613281 12.164062 C 22.023438 12.472656 21.4375 12.554688 20.847656 12.554688 C 19.277344 12.554688 18.324219 11.628906 18.324219 10.257812 C 18.324219 8.671875 19.53125 7.972656 20.875 7.972656 C 21.632812 7.972656 22.234375 8.183594 22.597656 8.308594 L 22.597656 9.5 C 22.347656 9.34375 21.84375 9.023438 21.183594 9.023438 C 20.414062 9.023438 19.710938 9.5 19.710938 10.285156 C 19.710938 10.957031 20.285156 11.519531 21.113281 11.519531 C 21.828125 11.519531 22.359375 11.195312 22.628906 11.042969 Z M 22.613281 12.164062 " fill-opacity="1" fill-rule="nonzero"/><path fill="#d9d9d9" d="M 25.824219 12.554688 C 24.070312 12.554688 23.285156 11.417969 23.285156 10.257812 C 23.285156 9.105469 24.070312 7.972656 25.824219 7.972656 C 27.519531 7.972656 28.359375 9.050781 28.359375 10.257812 C 28.359375 11.488281 27.503906 12.554688 25.824219 12.554688 Z M 25.824219 11.40625 C 26.566406 11.40625 26.988281 10.929688 26.988281 10.257812 C 26.988281 9.597656 26.566406 9.121094 25.824219 9.121094 C 25.09375 9.121094 24.660156 9.582031 24.660156 10.257812 C 24.660156 10.929688 25.09375 11.40625 25.824219 11.40625 Z M 25.824219 11.40625 " fill-opacity="1" fill-rule="nonzero"/><path fill="#d9d9d9" d="M 31.613281 12.554688 C 29.859375 12.554688 29.074219 11.417969 29.074219 10.257812 C 29.074219 9.105469 29.859375 7.972656 31.613281 7.972656 C 33.308594 7.972656 34.148438 9.050781 34.148438 10.257812 C 34.148438 11.488281 33.308594 12.554688 31.613281 12.554688 Z M 31.613281 11.40625 C 32.355469 11.40625 32.777344 10.929688 32.777344 10.257812 C 32.777344 9.597656 32.355469 9.121094 31.613281 9.121094 C 30.882812 9.121094 30.449219 9.582031 30.449219 10.257812 C 30.464844 10.929688 30.882812 11.40625 31.613281 11.40625 Z M 31.613281 11.40625 " fill-opacity="1" fill-rule="nonzero"/><path fill="#d9d9d9" d="M 36.996094 8.027344 C 38.242188 8.027344 38.636719 8.839844 38.636719 9.429688 C 38.636719 10.019531 38.242188 10.816406 36.996094 10.816406 L 36.113281 10.816406 L 36.113281 12.5 L 34.765625 12.5 L 34.765625 8.027344 Z M 36.113281 8.882812 L 36.113281 9.960938 L 36.40625 9.960938 C 37.039062 9.960938 37.261719 9.863281 37.261719 9.441406 C 37.261719 9.023438 37.039062 8.882812 36.394531 8.882812 Z M 36.113281 8.882812 " fill-opacity="1" fill-rule="nonzero"/><path fill="#d9d9d9" d="M 42.476562 11.601562 L 42.476562 12.5 L 39.113281 12.5 L 39.113281 8.027344 L 42.421875 8.027344 L 42.421875 8.925781 L 40.457031 8.925781 L 40.457031 9.738281 L 42.335938 9.738281 L 42.335938 10.636719 L 40.457031 10.636719 L 40.457031 11.589844 L 42.476562 11.589844 Z M 42.476562 11.601562 " fill-opacity="1" fill-rule="nonzero"/><path fill="#d9d9d9" d="M 45.476562 8.027344 C 46.679688 8.027344 47.046875 8.910156 47.046875 9.414062 C 47.046875 10.171875 46.5 10.4375 46.316406 10.535156 C 46.570312 10.691406 46.710938 10.773438 47.058594 11.53125 L 47.507812 12.5 L 46.066406 12.5 L 45.714844 11.714844 C 45.320312 10.816406 45.082031 10.761719 44.691406 10.761719 L 44.535156 10.761719 L 44.535156 12.5 L 43.191406 12.5 L 43.191406 8.027344 Z M 44.523438 8.882812 L 44.523438 9.960938 L 44.816406 9.960938 C 45.460938 9.960938 45.671875 9.851562 45.671875 9.441406 C 45.671875 9.023438 45.40625 8.882812 44.804688 8.882812 Z M 44.523438 8.882812 " fill-opacity="1" fill-rule="nonzero"/><path fill="#d9d9d9" d="M 48.996094 11.589844 L 48.628906 12.484375 L 47.257812 12.484375 L 49.234375 8.011719 L 50.71875 8.011719 L 52.679688 12.484375 L 51.308594 12.484375 L 50.941406 11.589844 Z M 50.632812 10.816406 L 49.976562 9.191406 L 49.316406 10.816406 Z M 50.632812 10.816406 " fill-opacity="1" fill-rule="nonzero"/><path fill="#d9d9d9" d="M 56.382812 8.027344 L 56.382812 9.121094 L 54.742188 9.121094 L 54.742188 12.5 L 53.394531 12.5 L 53.394531 9.121094 L 51.757812 9.121094 L 51.757812 8.027344 Z M 56.382812 8.027344 " fill-opacity="1" fill-rule="nonzero"/><path fill="#d9d9d9" d="M 56.859375 8.027344 L 58.203125 8.027344 L 58.203125 12.5 L 56.859375 12.5 Z M 56.859375 8.027344 " fill-opacity="1" fill-rule="nonzero"/><path fill="#d9d9d9" d="M 60.054688 8.027344 L 61.078125 10.605469 L 62.128906 8.027344 L 63.53125 8.027344 L 61.511719 12.554688 L 60.613281 12.554688 L 58.636719 8.027344 Z M 60.054688 8.027344 " fill-opacity="1" fill-rule="nonzero"/><path fill="#d9d9d9" d="M 64.695312 11.589844 L 64.328125 12.484375 L 62.957031 12.484375 L 64.933594 8.011719 L 66.417969 8.011719 L 68.382812 12.484375 L 67.007812 12.484375 L 66.644531 11.589844 Z M 66.320312 10.816406 L 65.660156 9.191406 L 65.003906 10.816406 Z M 66.320312 10.816406 " fill-opacity="1" fill-rule="nonzero"/><path fill="#d9d9d9" d="M 8.1875 15.472656 L 9.660156 17.601562 L 11.148438 15.472656 L 13.207031 15.472656 L 10.683594 19.144531 L 10.683594 22.242188 L 8.734375 22.242188 L 8.734375 19.171875 L 6.171875 15.457031 Z M 8.1875 15.472656 " fill-opacity="1" fill-rule="nonzero"/><path fill="#d9d9d9" d="M 14.734375 20.882812 L 14.203125 22.253906 L 12.210938 22.253906 L 15.058594 15.472656 L 17.203125 15.472656 L 20.035156 22.253906 L 18.042969 22.253906 L 17.523438 20.882812 Z M 17.078125 19.703125 L 16.136719 17.238281 L 15.183594 19.703125 Z M 17.078125 19.703125 " fill-opacity="1" fill-rule="nonzero"/><path fill="#d9d9d9" d="M 20.917969 15.472656 L 22.683594 15.472656 L 24.660156 18.007812 L 26.648438 15.472656 L 28.417969 15.472656 L 28.417969 22.253906 L 26.480469 22.253906 L 26.480469 18.332031 L 24.730469 20.601562 L 24.574219 20.601562 L 22.808594 18.332031 L 22.808594 22.253906 L 20.929688 22.253906 L 20.929688 15.472656 Z M 20.917969 15.472656 " fill-opacity="1" fill-rule="nonzero"/><path fill="#d9d9d9" d="M 31.683594 20.882812 L 31.148438 22.253906 L 29.160156 22.253906 L 32.003906 15.472656 L 34.148438 15.472656 L 36.980469 22.253906 L 34.992188 22.253906 L 34.472656 20.882812 Z M 34.023438 19.703125 L 33.085938 17.238281 L 32.132812 19.703125 Z M 34.023438 19.703125 " fill-opacity="1" fill-rule="nonzero"/><path fill="#d9d9d9" d="M 39.644531 15.472656 L 42.96875 19.226562 L 42.96875 15.472656 L 44.902344 15.472656 L 44.902344 22.253906 L 43.175781 22.253906 L 39.839844 18.484375 L 39.839844 22.253906 L 37.921875 22.253906 L 37.921875 15.472656 Z M 39.644531 15.472656 " fill-opacity="1" fill-rule="nonzero"/><path fill="#d9d9d9" d="M 51.125 15.472656 L 51.125 18.511719 L 53.453125 15.484375 L 55.570312 15.484375 L 53.171875 18.652344 L 55.960938 22.253906 L 53.59375 22.253906 L 51.125 19.074219 L 51.125 22.242188 L 49.191406 22.242188 L 49.191406 15.457031 Z M 51.125 15.472656 " fill-opacity="1" fill-rule="nonzero"/><path fill="#d9d9d9" d="M 58.527344 15.472656 L 58.527344 18.679688 C 58.527344 20.082031 59.144531 20.628906 59.984375 20.628906 C 60.8125 20.628906 61.441406 20.082031 61.441406 18.679688 L 61.441406 15.457031 L 63.375 15.457031 L 63.375 19.214844 C 63.375 21.652344 61.414062 22.339844 59.984375 22.339844 C 58.554688 22.339844 56.578125 21.652344 56.578125 19.214844 L 56.578125 15.472656 Z M 58.527344 15.472656 " fill-opacity="1" fill-rule="nonzero"/><path fill="#d9d9d9" d="M 71.199219 15.472656 L 71.199219 17.125 L 68.84375 17.125 L 68.84375 22.253906 L 66.910156 22.253906 L 66.910156 17.125 L 64.554688 17.125 L 64.554688 15.472656 Z M 71.199219 15.472656 " fill-opacity="1" fill-rule="nonzero"/><path fill="#d9d9d9" d="M 74.226562 15.472656 L 74.660156 16.046875 C 74.886719 16.324219 75.261719 16.859375 75.570312 17.277344 C 75.824219 16.871094 76.089844 16.496094 76.386719 16.117188 L 76.890625 15.472656 L 79.328125 15.472656 L 76.832031 18.722656 L 79.664062 22.242188 L 77.171875 22.242188 L 76.484375 21.386719 C 76.414062 21.289062 75.839844 20.585938 75.585938 20.222656 C 75.054688 20.980469 74.914062 21.160156 74.675781 21.46875 L 74.085938 22.226562 L 71.632812 22.226562 L 74.367188 18.710938 L 71.757812 15.457031 Z M 74.226562 15.472656 " fill-opacity="1" fill-rule="nonzero"/><path fill="#d9d9d9" d="M 95.910156 7.03125 C 96.316406 6.667969 96.765625 6.34375 97.269531 6.121094 C 97.355469 6.175781 97.453125 6.21875 97.539062 6.273438 C 97.355469 6.402344 97.160156 6.511719 96.960938 6.613281 C 96.835938 6.683594 96.683594 6.667969 96.554688 6.75 C 96.316406 6.90625 96.078125 7.089844 95.941406 7.339844 C 96.316406 7.328125 96.667969 7.171875 97.019531 7.074219 C 97.101562 7.046875 97.242188 7.074219 97.214844 7.1875 C 97.199219 7.285156 97.160156 7.367188 97.101562 7.4375 C 96.894531 7.691406 96.625 7.902344 96.347656 8.070312 C 96.179688 8.167969 95.980469 8.238281 95.800781 8.265625 C 95.839844 8.183594 95.882812 8.097656 95.96875 8.042969 C 96.234375 7.832031 96.527344 7.648438 96.765625 7.382812 C 96.429688 7.46875 96.136719 7.621094 95.800781 7.691406 C 95.644531 7.734375 95.574219 7.535156 95.601562 7.425781 C 95.644531 7.257812 95.785156 7.144531 95.910156 7.03125 Z M 95.910156 7.03125 " fill-opacity="1" fill-rule="nonzero"/><path fill="#d9d9d9" d="M 94.480469 6.597656 C 94.679688 6.429688 94.917969 6.261719 95.195312 6.234375 C 95.292969 6.21875 95.433594 6.234375 95.492188 6.332031 C 95.574219 6.5 95.546875 6.710938 95.449219 6.878906 C 95.324219 7.089844 95.125 7.257812 94.929688 7.398438 C 94.636719 7.605469 94.300781 7.789062 93.949219 7.859375 C 93.835938 7.875 93.851562 8.054688 93.949219 8.097656 C 94.074219 8.167969 94.230469 8.097656 94.355469 8.054688 C 94.734375 7.886719 95.054688 7.636719 95.421875 7.410156 C 95.464844 7.425781 95.503906 7.453125 95.53125 7.46875 C 95.324219 7.773438 95.015625 8 94.691406 8.183594 C 94.453125 8.320312 94.160156 8.449219 93.878906 8.335938 C 93.667969 8.25 93.585938 8 93.683594 7.789062 C 93.667969 7.71875 93.570312 7.636719 93.640625 7.550781 C 93.683594 7.523438 93.726562 7.507812 93.765625 7.496094 C 93.921875 7.160156 94.171875 6.851562 94.480469 6.597656 Z M 94.550781 6.792969 C 94.339844 6.992188 94.132812 7.230469 94.0625 7.507812 C 94.425781 7.4375 94.71875 7.214844 95 6.992188 C 95.113281 6.878906 95.238281 6.765625 95.292969 6.625 C 95.324219 6.570312 95.308594 6.472656 95.238281 6.472656 C 94.972656 6.445312 94.734375 6.625 94.550781 6.792969 Z M 94.550781 6.792969 " fill-opacity="1" fill-rule="nonzero"/><path fill="#d9d9d9" d="M 87.011719 6.949219 C 87.09375 6.792969 87.261719 6.710938 87.429688 6.710938 C 88.621094 6.710938 89.8125 6.710938 91.003906 6.710938 C 91.203125 6.695312 91.398438 6.792969 91.496094 6.960938 C 92.785156 9.066406 94.074219 11.152344 95.363281 13.242188 C 94.804688 13.128906 94.300781 12.765625 94.046875 12.261719 C 93.304688 10.972656 92.546875 9.679688 91.789062 8.40625 C 91.648438 8.152344 91.355469 8 91.074219 8.042969 C 90.824219 8.070312 90.585938 8.25 90.515625 8.503906 C 90.457031 8.6875 90.5 8.882812 90.597656 9.050781 C 91.453125 10.507812 92.308594 11.980469 93.164062 13.4375 C 93.21875 13.535156 93.304688 13.621094 93.289062 13.746094 C 93.289062 14.714844 93.289062 15.695312 93.289062 16.664062 C 92.535156 15.261719 91.789062 13.84375 91.019531 12.441406 C 91.003906 14.460938 91.019531 16.496094 91.019531 18.511719 C 91.019531 18.765625 90.796875 18.976562 90.558594 18.976562 C 89.503906 18.976562 88.46875 18.976562 87.417969 18.976562 C 87.207031 18.988281 86.996094 18.835938 86.941406 18.625 C 86.914062 18.5 86.925781 18.359375 86.925781 18.230469 C 86.925781 14.628906 86.925781 11.027344 86.925781 7.425781 C 86.953125 7.269531 86.925781 7.089844 87.011719 6.949219 Z M 87.011719 6.949219 " fill-opacity="1" fill-rule="nonzero"/><path fill="#d9d9d9" d="M 99.78125 6.808594 C 99.878906 6.738281 99.992188 6.710938 100.117188 6.710938 C 101.324219 6.710938 102.527344 6.710938 103.734375 6.710938 C 103.984375 6.695312 104.222656 6.921875 104.222656 7.171875 C 104.222656 10.929688 104.222656 14.699219 104.222656 18.457031 C 104.253906 18.722656 104 18.976562 103.734375 18.960938 C 102.683594 18.960938 101.644531 18.960938 100.59375 18.960938 C 100.355469 18.976562 100.117188 18.75 100.128906 18.5 C 100.128906 16.464844 100.128906 14.433594 100.128906 12.402344 C 99.414062 13.734375 98.699219 15.078125 97.972656 16.410156 C 97.972656 15.484375 97.972656 14.574219 97.972656 13.648438 C 98.871094 12.105469 99.765625 10.578125 100.675781 9.035156 C 100.832031 8.796875 100.804688 8.460938 100.605469 8.25 C 100.410156 8.027344 100.074219 7.972656 99.808594 8.097656 C 99.652344 8.167969 99.527344 8.292969 99.445312 8.449219 C 98.6875 9.75 97.929688 11.042969 97.171875 12.34375 C 96.894531 12.851562 96.359375 13.199219 95.785156 13.269531 C 97.019531 11.238281 98.265625 9.203125 99.5 7.171875 C 99.585938 7.03125 99.652344 6.890625 99.78125 6.808594 Z M 99.78125 6.808594 " fill-opacity="1" fill-rule="nonzero"/><path fill="#d9d9d9" d="M 95.238281 9.554688 C 95.839844 9.375 96.542969 9.679688 96.792969 10.257812 C 97.074219 10.832031 96.878906 11.589844 96.347656 11.925781 C 95.828125 12.289062 95.054688 12.203125 94.636719 11.742188 C 94.203125 11.292969 94.160156 10.535156 94.539062 10.03125 C 94.71875 9.808594 94.972656 9.625 95.238281 9.554688 Z M 95.238281 9.554688 " fill-opacity="1" fill-rule="nonzero"/><path fill="#004380" d="M 85.34375 23.308594 C 92.15625 23.308594 98.953125 23.308594 105.765625 23.308594 C 105.765625 23.390625 105.765625 23.488281 105.765625 23.574219 C 98.953125 23.574219 92.15625 23.574219 85.34375 23.574219 C 85.34375 23.488281 85.34375 23.40625 85.34375 23.308594 Z M 85.34375 23.308594 " fill-opacity="1" fill-rule="nonzero"/><path fill="#00ad00" d="M 89.308594 19.859375 C 89.335938 19.859375 89.367188 19.871094 89.394531 19.886719 C 89.421875 19.914062 89.421875 19.929688 89.421875 19.957031 L 89.421875 22.550781 C 89.421875 22.578125 89.40625 22.605469 89.394531 22.621094 C 89.367188 22.648438 89.351562 22.648438 89.308594 22.648438 L 88.59375 22.648438 C 88.566406 22.648438 88.539062 22.632812 88.511719 22.621094 C 88.480469 22.59375 88.480469 22.578125 88.480469 22.550781 L 88.480469 21.148438 L 87.710938 22.59375 C 87.695312 22.605469 87.683594 22.621094 87.667969 22.632812 C 87.65625 22.648438 87.628906 22.648438 87.613281 22.648438 L 87.277344 22.648438 C 87.261719 22.648438 87.25 22.648438 87.21875 22.632812 C 87.207031 22.621094 87.191406 22.605469 87.179688 22.59375 L 86.40625 21.148438 L 86.40625 22.550781 C 86.40625 22.578125 86.394531 22.605469 86.378906 22.621094 C 86.351562 22.648438 86.335938 22.648438 86.296875 22.648438 L 85.582031 22.648438 C 85.550781 22.648438 85.523438 22.632812 85.496094 22.621094 C 85.46875 22.59375 85.46875 22.578125 85.46875 22.550781 L 85.46875 19.957031 C 85.46875 19.929688 85.480469 19.902344 85.496094 19.886719 C 85.523438 19.859375 85.539062 19.859375 85.582031 19.859375 L 86.421875 19.859375 C 86.4375 19.859375 86.449219 19.859375 86.476562 19.871094 C 86.492188 19.886719 86.503906 19.902344 86.519531 19.914062 L 87.457031 21.429688 L 88.382812 19.914062 C 88.398438 19.902344 88.410156 19.886719 88.425781 19.871094 C 88.441406 19.859375 88.46875 19.859375 88.480469 19.859375 Z M 89.308594 19.859375 " fill-opacity="1" fill-rule="nonzero"/><path fill="#004380" d="M 89.671875 22.660156 C 89.644531 22.660156 89.632812 22.648438 89.605469 22.632812 C 89.589844 22.605469 89.574219 22.59375 89.574219 22.5625 L 89.574219 19.96875 C 89.574219 19.941406 89.589844 19.914062 89.605469 19.902344 C 89.617188 19.871094 89.644531 19.871094 89.671875 19.871094 L 90.332031 19.871094 C 90.359375 19.871094 90.375 19.886719 90.402344 19.902344 C 90.417969 19.929688 90.429688 19.941406 90.429688 19.96875 L 90.429688 22.5625 C 90.429688 22.59375 90.417969 22.621094 90.402344 22.632812 C 90.386719 22.660156 90.359375 22.660156 90.332031 22.660156 Z M 89.671875 22.660156 " fill-opacity="1" fill-rule="nonzero"/><path fill="#00ad00" d="M 91.578125 21.289062 C 91.578125 21.398438 91.59375 21.5 91.636719 21.582031 C 91.679688 21.667969 91.734375 21.75 91.804688 21.808594 C 91.957031 21.933594 92.167969 22.003906 92.433594 22.003906 C 92.617188 22.003906 92.800781 21.976562 92.96875 21.933594 L 92.953125 21.933594 C 93.039062 21.90625 93.121094 21.878906 93.191406 21.863281 C 93.261719 21.835938 93.332031 21.820312 93.386719 21.792969 C 93.429688 21.777344 93.457031 21.777344 93.488281 21.808594 C 93.515625 21.835938 93.527344 21.863281 93.527344 21.90625 L 93.515625 22.4375 C 93.515625 22.453125 93.5 22.480469 93.488281 22.492188 C 93.472656 22.507812 93.457031 22.523438 93.429688 22.535156 C 93.261719 22.59375 93.078125 22.632812 92.898438 22.660156 C 92.703125 22.691406 92.492188 22.703125 92.265625 22.703125 C 91.734375 22.703125 91.328125 22.578125 91.035156 22.339844 C 90.726562 22.101562 90.570312 21.75 90.570312 21.289062 C 90.570312 21.050781 90.613281 20.824219 90.683594 20.644531 C 90.753906 20.460938 90.863281 20.308594 91.003906 20.179688 C 91.144531 20.054688 91.328125 19.957031 91.539062 19.886719 C 91.75 19.816406 91.988281 19.789062 92.253906 19.789062 C 92.492188 19.789062 92.6875 19.800781 92.871094 19.832031 C 93.050781 19.859375 93.207031 19.902344 93.332031 19.941406 C 93.347656 19.941406 93.375 19.957031 93.386719 19.984375 C 93.402344 20 93.417969 20.027344 93.417969 20.039062 L 93.457031 20.574219 C 93.457031 20.617188 93.445312 20.644531 93.417969 20.671875 C 93.386719 20.699219 93.347656 20.699219 93.316406 20.683594 C 93.21875 20.644531 93.078125 20.601562 92.910156 20.558594 C 92.828125 20.53125 92.742188 20.515625 92.671875 20.503906 C 92.589844 20.488281 92.519531 20.488281 92.433594 20.488281 C 92.167969 20.488281 91.957031 20.558594 91.804688 20.699219 C 91.648438 20.839844 91.578125 21.035156 91.578125 21.289062 Z M 91.578125 21.289062 " fill-opacity="1" fill-rule="nonzero"/><path fill="#00ad00" d="M 96.640625 22.355469 C 96.359375 22.59375 95.941406 22.71875 95.378906 22.71875 C 94.832031 22.71875 94.410156 22.59375 94.117188 22.355469 C 93.835938 22.117188 93.695312 21.75 93.695312 21.261719 C 93.695312 20.769531 93.835938 20.40625 94.117188 20.167969 C 94.398438 19.929688 94.816406 19.800781 95.378906 19.800781 C 95.925781 19.800781 96.347656 19.929688 96.640625 20.167969 C 96.921875 20.40625 97.0625 20.769531 97.0625 21.261719 C 97.0625 21.75 96.921875 22.117188 96.640625 22.355469 Z M 95.898438 20.796875 C 95.785156 20.699219 95.601562 20.644531 95.378906 20.644531 C 95.15625 20.644531 94.988281 20.699219 94.875 20.796875 C 94.761719 20.894531 94.691406 21.050781 94.691406 21.261719 C 94.691406 21.46875 94.75 21.625 94.875 21.722656 C 94.988281 21.820312 95.167969 21.878906 95.378906 21.878906 C 95.601562 21.878906 95.769531 21.820312 95.898438 21.722656 C 96.007812 21.625 96.078125 21.46875 96.078125 21.261719 C 96.078125 21.050781 96.007812 20.894531 95.898438 20.796875 Z M 95.898438 20.796875 " fill-opacity="1" fill-rule="nonzero"/><path fill="#00ad00" d="M 100.160156 22.355469 C 99.878906 22.59375 99.457031 22.71875 98.898438 22.71875 C 98.351562 22.71875 97.929688 22.59375 97.636719 22.355469 C 97.355469 22.117188 97.214844 21.75 97.214844 21.261719 C 97.214844 20.769531 97.355469 20.40625 97.636719 20.167969 C 97.917969 19.929688 98.335938 19.800781 98.898438 19.800781 C 99.445312 19.800781 99.863281 19.929688 100.160156 20.167969 C 100.4375 20.40625 100.578125 20.769531 100.578125 21.261719 C 100.59375 21.75 100.4375 22.117188 100.160156 22.355469 Z M 99.414062 20.796875 C 99.304688 20.699219 99.121094 20.644531 98.898438 20.644531 C 98.671875 20.644531 98.503906 20.699219 98.394531 20.796875 C 98.28125 20.894531 98.210938 21.050781 98.210938 21.261719 C 98.210938 21.46875 98.265625 21.625 98.394531 21.722656 C 98.503906 21.820312 98.6875 21.878906 98.898438 21.878906 C 99.121094 21.878906 99.289062 21.820312 99.414062 21.722656 C 99.527344 21.625 99.597656 21.46875 99.597656 21.261719 C 99.597656 21.050781 99.542969 20.894531 99.414062 20.796875 Z M 99.414062 20.796875 " fill-opacity="1" fill-rule="nonzero"/><path fill="#00ad00" d="M 101.730469 21.667969 L 101.730469 22.5625 C 101.730469 22.59375 101.714844 22.621094 101.699219 22.632812 C 101.671875 22.660156 101.660156 22.660156 101.617188 22.660156 L 100.859375 22.660156 C 100.832031 22.660156 100.804688 22.648438 100.789062 22.632812 C 100.761719 22.605469 100.761719 22.59375 100.761719 22.5625 L 100.761719 19.96875 C 100.761719 19.941406 100.777344 19.914062 100.789062 19.902344 C 100.816406 19.871094 100.832031 19.871094 100.859375 19.871094 L 101.910156 19.871094 C 102.136719 19.871094 102.332031 19.886719 102.515625 19.914062 C 102.683594 19.941406 102.820312 20 102.949219 20.070312 C 103.058594 20.140625 103.144531 20.238281 103.214844 20.347656 C 103.269531 20.460938 103.296875 20.601562 103.296875 20.753906 C 103.296875 21.078125 103.199219 21.300781 103.003906 21.457031 C 102.808594 21.609375 102.515625 21.679688 102.121094 21.667969 Z M 101.714844 20.515625 L 101.714844 21.023438 L 101.898438 21.035156 C 102.191406 21.050781 102.332031 20.964844 102.332031 20.769531 C 102.332031 20.683594 102.289062 20.617188 102.21875 20.558594 C 102.148438 20.515625 102.050781 20.488281 101.925781 20.503906 Z M 101.714844 20.515625 " fill-opacity="1" fill-rule="nonzero"/><path fill="#00ad00" d="M 103.550781 22.660156 C 103.523438 22.660156 103.496094 22.648438 103.480469 22.632812 C 103.453125 22.605469 103.453125 22.59375 103.453125 22.5625 L 103.453125 19.96875 C 103.453125 19.941406 103.46875 19.914062 103.480469 19.902344 C 103.507812 19.871094 103.523438 19.871094 103.550781 19.871094 L 105.625 19.871094 C 105.652344 19.871094 105.683594 19.886719 105.695312 19.902344 C 105.722656 19.929688 105.722656 19.941406 105.722656 19.96875 L 105.722656 20.488281 C 105.722656 20.515625 105.710938 20.546875 105.695312 20.574219 C 105.667969 20.601562 105.652344 20.601562 105.625 20.601562 L 104.421875 20.601562 L 104.421875 20.882812 L 105.445312 20.882812 C 105.472656 20.882812 105.5 20.894531 105.511719 20.910156 C 105.542969 20.9375 105.542969 20.953125 105.542969 20.980469 L 105.542969 21.5 C 105.542969 21.527344 105.527344 21.554688 105.511719 21.582031 C 105.484375 21.609375 105.472656 21.609375 105.445312 21.609375 L 104.421875 21.609375 L 104.421875 21.90625 L 105.722656 21.90625 C 105.75 21.90625 105.78125 21.917969 105.792969 21.933594 C 105.808594 21.960938 105.820312 21.976562 105.820312 22.015625 L 105.820312 22.535156 C 105.820312 22.5625 105.808594 22.59375 105.792969 22.605469 C 105.78125 22.632812 105.75 22.632812 105.722656 22.632812 L 103.550781 22.632812 Z M 103.550781 22.660156 " fill-opacity="1" fill-rule="nonzero"/><path fill="#d9d9d9" d="M 21.660156 24.203125 L 65.03125 24.203125 C 66.867188 24.203125 68.367188 25.703125 68.367188 27.539062 C 68.367188 29.375 66.867188 30.875 65.03125 30.875 L 21.660156 30.875 C 19.824219 30.875 18.324219 29.375 18.324219 27.539062 C 18.324219 25.703125 19.808594 24.203125 21.660156 24.203125 Z M 21.660156 24.203125 " fill-opacity="1" fill-rule="nonzero"/><path fill="#004380" d="M 24.742188 28.269531 L 23.328125 28.269531 L 23.0625 28.914062 L 22.347656 28.914062 L 23.707031 25.871094 L 24.40625 25.871094 L 25.765625 28.914062 L 25.023438 28.914062 Z M 24.519531 27.738281 L 24.042969 26.574219 L 23.566406 27.738281 Z M 24.519531 27.738281 " fill-opacity="1" fill-rule="nonzero"/><path fill="#004380" d="M 28.402344 27.582031 L 28.402344 28.914062 L 27.730469 28.914062 L 27.730469 27.679688 C 27.730469 27.300781 27.5625 27.132812 27.253906 27.132812 C 26.929688 27.132812 26.691406 27.328125 26.691406 27.765625 L 26.691406 28.914062 L 26.019531 28.914062 L 26.019531 25.691406 L 26.691406 25.691406 L 26.691406 26.8125 C 26.875 26.628906 27.140625 26.53125 27.433594 26.53125 C 27.980469 26.558594 28.402344 26.882812 28.402344 27.582031 Z M 28.402344 27.582031 " fill-opacity="1" fill-rule="nonzero"/><path fill="#004380" d="M 28.863281 27.75 C 28.863281 27.050781 29.410156 26.542969 30.15625 26.542969 C 30.898438 26.542969 31.429688 27.050781 31.429688 27.75 C 31.429688 28.453125 30.898438 28.957031 30.15625 28.957031 C 29.410156 28.957031 28.863281 28.464844 28.863281 27.75 Z M 30.742188 27.75 C 30.742188 27.34375 30.492188 27.105469 30.15625 27.105469 C 29.816406 27.105469 29.550781 27.34375 29.550781 27.75 C 29.550781 28.15625 29.816406 28.394531 30.15625 28.394531 C 30.492188 28.394531 30.742188 28.15625 30.742188 27.75 Z M 30.742188 27.75 " fill-opacity="1" fill-rule="nonzero"/><path fill="#004380" d="M 33.324219 26.558594 L 33.324219 27.191406 C 33.265625 27.191406 33.226562 27.175781 33.167969 27.175781 C 32.789062 27.175781 32.550781 27.386719 32.550781 27.820312 L 32.550781 28.929688 L 31.878906 28.929688 L 31.878906 26.585938 L 32.523438 26.585938 L 32.523438 26.894531 C 32.691406 26.671875 32.972656 26.558594 33.324219 26.558594 Z M 33.324219 26.558594 " fill-opacity="1" fill-rule="nonzero"/><path fill="#004380" d="M 35.1875 26.558594 L 35.1875 27.191406 C 35.132812 27.191406 35.089844 27.175781 35.03125 27.175781 C 34.65625 27.175781 34.417969 27.386719 34.417969 27.820312 L 34.417969 28.929688 L 33.742188 28.929688 L 33.742188 26.585938 L 34.386719 26.585938 L 34.386719 26.894531 C 34.542969 26.671875 34.824219 26.558594 35.1875 26.558594 Z M 35.1875 26.558594 " fill-opacity="1" fill-rule="nonzero"/><path fill="#004380" d="M 35.382812 27.75 C 35.382812 27.050781 35.929688 26.542969 36.671875 26.542969 C 37.414062 26.542969 37.949219 27.050781 37.949219 27.75 C 37.949219 28.453125 37.414062 28.957031 36.671875 28.957031 C 35.929688 28.957031 35.382812 28.464844 35.382812 27.75 Z M 37.261719 27.75 C 37.261719 27.34375 37.007812 27.105469 36.671875 27.105469 C 36.335938 27.105469 36.070312 27.34375 36.070312 27.75 C 36.070312 28.15625 36.335938 28.394531 36.671875 28.394531 C 37.007812 28.410156 37.261719 28.15625 37.261719 27.75 Z M 37.261719 27.75 " fill-opacity="1" fill-rule="nonzero"/><path fill="#004380" d="M 38.171875 28.703125 L 38.398438 28.214844 C 38.605469 28.351562 38.914062 28.4375 39.210938 28.4375 C 39.519531 28.4375 39.644531 28.351562 39.644531 28.226562 C 39.644531 27.847656 38.230469 28.242188 38.230469 27.300781 C 38.230469 26.851562 38.621094 26.542969 39.308594 26.542969 C 39.628906 26.542969 39.980469 26.613281 40.207031 26.753906 L 39.980469 27.230469 C 39.757812 27.105469 39.519531 27.0625 39.308594 27.0625 C 39 27.0625 38.875 27.160156 38.875 27.273438 C 38.875 27.667969 40.289062 27.289062 40.289062 28.214844 C 40.289062 28.648438 39.882812 28.957031 39.183594 28.957031 C 38.789062 28.957031 38.398438 28.84375 38.171875 28.703125 Z M 38.171875 28.703125 " fill-opacity="1" fill-rule="nonzero"/><path fill="#004380" d="M 44.257812 26.585938 L 43.207031 29.066406 C 42.980469 29.628906 42.660156 29.796875 42.238281 29.796875 C 42 29.796875 41.734375 29.710938 41.59375 29.585938 L 41.84375 29.109375 C 41.945312 29.195312 42.097656 29.265625 42.222656 29.265625 C 42.40625 29.265625 42.519531 29.179688 42.601562 28.96875 L 42.617188 28.941406 L 41.605469 26.585938 L 42.308594 26.585938 L 42.96875 28.171875 L 43.625 26.585938 Z M 44.257812 26.585938 " fill-opacity="1" fill-rule="nonzero"/><path fill="#004380" d="M 45.617188 27.398438 C 45.617188 26.488281 46.316406 25.828125 47.269531 25.828125 C 47.789062 25.828125 48.238281 26.027344 48.519531 26.363281 L 48.070312 26.78125 C 47.859375 26.542969 47.605469 26.433594 47.3125 26.433594 C 46.738281 26.433594 46.34375 26.824219 46.34375 27.398438 C 46.34375 27.976562 46.75 28.367188 47.3125 28.367188 C 47.621094 28.367188 47.875 28.242188 48.070312 28.003906 L 48.519531 28.421875 C 48.238281 28.773438 47.789062 28.96875 47.269531 28.96875 C 46.316406 28.96875 45.617188 28.324219 45.617188 27.398438 Z M 45.617188 27.398438 " fill-opacity="1" fill-rule="nonzero"/><path fill="#004380" d="M 50.382812 26.558594 L 50.382812 27.191406 C 50.324219 27.191406 50.285156 27.175781 50.226562 27.175781 C 49.847656 27.175781 49.609375 27.386719 49.609375 27.820312 L 49.609375 28.929688 L 48.9375 28.929688 L 48.9375 26.585938 L 49.582031 26.585938 L 49.582031 26.894531 C 49.75 26.671875 50.03125 26.558594 50.382812 26.558594 Z M 50.382812 26.558594 " fill-opacity="1" fill-rule="nonzero"/><path fill="#004380" d="M 53.046875 27.945312 L 51.28125 27.945312 C 51.347656 28.242188 51.585938 28.410156 51.953125 28.410156 C 52.203125 28.410156 52.371094 28.339844 52.539062 28.183594 L 52.90625 28.578125 C 52.695312 28.828125 52.359375 28.957031 51.9375 28.957031 C 51.125 28.957031 50.605469 28.453125 50.605469 27.75 C 50.605469 27.050781 51.140625 26.542969 51.855469 26.542969 C 52.539062 26.542969 53.074219 27.007812 53.074219 27.75 C 53.058594 27.820312 53.046875 27.890625 53.046875 27.945312 Z M 51.265625 27.554688 L 52.414062 27.554688 C 52.371094 27.257812 52.148438 27.0625 51.839844 27.0625 C 51.53125 27.0625 51.320312 27.246094 51.265625 27.554688 Z M 51.964844 26.292969 L 51.433594 26.292969 L 52.023438 25.660156 L 52.75 25.660156 Z M 51.964844 26.292969 " fill-opacity="1" fill-rule="nonzero"/><path fill="#004380" d="M 55.878906 25.703125 L 55.878906 28.929688 L 55.230469 28.929688 L 55.230469 28.660156 C 55.0625 28.871094 54.8125 28.96875 54.503906 28.96875 C 53.84375 28.96875 53.339844 28.507812 53.339844 27.765625 C 53.339844 27.035156 53.84375 26.558594 54.503906 26.558594 C 54.785156 26.558594 55.035156 26.644531 55.203125 26.839844 L 55.203125 25.703125 Z M 55.21875 27.75 C 55.21875 27.34375 54.953125 27.105469 54.628906 27.105469 C 54.292969 27.105469 54.027344 27.34375 54.027344 27.75 C 54.027344 28.15625 54.292969 28.394531 54.628906 28.394531 C 54.964844 28.410156 55.21875 28.15625 55.21875 27.75 Z M 55.21875 27.75 " fill-opacity="1" fill-rule="nonzero"/><path fill="#004380" d="M 56.421875 25.886719 C 56.421875 25.675781 56.59375 25.507812 56.84375 25.507812 C 57.097656 25.507812 57.265625 25.660156 57.265625 25.871094 C 57.265625 26.097656 57.097656 26.265625 56.84375 26.265625 C 56.59375 26.265625 56.421875 26.097656 56.421875 25.886719 Z M 56.507812 26.585938 L 57.179688 26.585938 L 57.179688 28.929688 L 56.507812 28.929688 Z M 56.507812 26.585938 " fill-opacity="1" fill-rule="nonzero"/><path fill="#004380" d="M 59.324219 28.816406 C 59.183594 28.914062 58.988281 28.96875 58.777344 28.96875 C 58.230469 28.96875 57.910156 28.691406 57.910156 28.128906 L 57.910156 27.175781 L 57.546875 27.175781 L 57.546875 26.644531 L 57.910156 26.644531 L 57.910156 26.066406 L 58.582031 26.066406 L 58.582031 26.644531 L 59.15625 26.644531 L 59.15625 27.160156 L 58.582031 27.160156 L 58.582031 28.113281 C 58.582031 28.3125 58.695312 28.421875 58.875 28.421875 C 58.976562 28.421875 59.074219 28.394531 59.144531 28.339844 Z M 59.324219 28.816406 " fill-opacity="1" fill-rule="nonzero"/><path fill="#004380" d="M 59.453125 27.75 C 59.453125 27.050781 60 26.542969 60.742188 26.542969 C 61.484375 26.542969 62.015625 27.050781 62.015625 27.75 C 62.015625 28.453125 61.484375 28.957031 60.742188 28.957031 C 60 28.957031 59.453125 28.464844 59.453125 27.75 Z M 61.328125 27.75 C 61.328125 27.34375 61.078125 27.105469 60.742188 27.105469 C 60.40625 27.105469 60.136719 27.34375 60.136719 27.75 C 60.136719 28.15625 60.40625 28.394531 60.742188 28.394531 C 61.078125 28.410156 61.328125 28.15625 61.328125 27.75 Z M 61.328125 27.75 " fill-opacity="1" fill-rule="nonzero"/><path fill="#004380" d="M 62.242188 28.703125 L 62.464844 28.214844 C 62.675781 28.351562 62.984375 28.4375 63.277344 28.4375 C 63.585938 28.4375 63.714844 28.351562 63.714844 28.226562 C 63.714844 27.847656 62.296875 28.242188 62.296875 27.300781 C 62.296875 26.851562 62.691406 26.542969 63.375 26.542969 C 63.699219 26.542969 64.050781 26.613281 64.273438 26.753906 L 64.050781 27.230469 C 63.824219 27.105469 63.585938 27.0625 63.375 27.0625 C 63.066406 27.0625 62.941406 27.160156 62.941406 27.273438 C 62.941406 27.667969 64.359375 27.289062 64.359375 28.214844 C 64.359375 28.648438 63.953125 28.957031 63.25 28.957031 C 62.859375 28.957031 62.464844 28.84375 62.242188 28.703125 Z M 62.242188 28.703125 " fill-opacity="1" fill-rule="nonzero"/></svg>