<?xml version="1.0" encoding="utf-8"?>
<!-- Generator: Adobe Illustrator 28.1.0, SVG Export Plug-In . SVG Version: 6.00 Build 0)  -->
<svg version="1.1" id="Layer_1" xmlns="http://www.w3.org/2000/svg" xmlns:xlink="http://www.w3.org/1999/xlink" x="0px" y="0px"
	 viewBox="0 0 792 253.8" style="enable-background:new 0 0 792 253.8;" xml:space="preserve">
<style type="text/css">
	.st0{fill:#004380;}
	.st1{fill:#233F7B;}
	.st2{fill:#00AD00;}
	.st3{fill:#FFFFFF;}
</style>
<g>
	<g>
		<path class="st0" d="M157.8,81.7c-4.2,2.2-8.4,2.8-12.6,2.8c-11.2,0-18-6.6-18-16.4c0-11.3,8.6-16.3,18.2-16.3
			c5.4,0,9.7,1.5,12.3,2.4v8.5c-1.8-1.1-5.4-3.4-10.1-3.4c-5.5,0-10.5,3.4-10.5,9c0,4.8,4.1,8.8,10,8.8c5.1,0,8.9-2.3,10.8-3.4
			L157.8,81.7L157.8,81.7z"/>
		<path class="st0" d="M180.7,84.5c-12.5,0-18.1-8.1-18.1-16.4c0-8.2,5.6-16.3,18.1-16.3c12.1,0,18.1,7.7,18.1,16.3
			C198.8,76.9,192.7,84.5,180.7,84.5z M180.7,76.3c5.3,0,8.3-3.4,8.3-8.2c0-4.7-3-8.1-8.3-8.1c-5.2,0-8.3,3.3-8.3,8.1
			C172.4,72.9,175.5,76.3,180.7,76.3z"/>
		<path class="st0" d="M222,84.5c-12.5,0-18.1-8.1-18.1-16.4c0-8.2,5.6-16.3,18.1-16.3c12.1,0,18.1,7.7,18.1,16.3
			C240.1,76.9,234.1,84.5,222,84.5z M222,76.3c5.3,0,8.3-3.4,8.3-8.2c0-4.7-3-8.1-8.3-8.1c-5.2,0-8.3,3.3-8.3,8.1
			C213.8,72.9,216.8,76.3,222,76.3z"/>
		<path class="st0" d="M260.4,52.2c8.9,0,11.7,5.8,11.7,10c0,4.2-2.8,9.9-11.7,9.9h-6.3v12h-9.6V52.2H260.4z M254.1,58.3V66h2.1
			c4.5,0,6.1-0.7,6.1-3.7s-1.6-4-6.2-4H254.1z"/>
		<path class="st0" d="M299.5,77.7v6.4h-24V52.2h23.6v6.4h-14v5.8h13.4v6.4h-13.4v6.8H299.5L299.5,77.7z"/>
		<path class="st0" d="M320.9,52.2c8.6,0,11.2,6.3,11.2,9.9c0,5.4-3.9,7.3-5.2,8c1.8,1.1,2.8,1.7,5.3,7.1l3.2,6.9h-10.3l-2.5-5.6
			c-2.8-6.4-4.5-6.8-7.3-6.8h-1.1v12.4h-9.6V52.2L320.9,52.2L320.9,52.2z M314.1,58.3V66h2.1c4.6,0,6.1-0.8,6.1-3.7c0-3-1.9-4-6.2-4
			H314.1L314.1,58.3z"/>
		<path class="st0" d="M346,77.6l-2.6,6.4h-9.8l14.1-31.9h10.6l14,31.9h-9.8l-2.6-6.4H346z M357.7,72.1L353,60.5l-4.7,11.6H357.7z"
			/>
		<path class="st0" d="M398.7,52.2V60h-11.7v24.1h-9.6V60h-11.7v-7.8H398.7z"/>
		<path class="st0" d="M411.7,52.2v31.9h-9.6V52.2H411.7z"/>
		<path class="st0" d="M424.9,52.2l7.3,18.4l7.5-18.4h10l-14.4,32.3h-6.4l-14.1-32.3H424.9L424.9,52.2z"/>
		<path class="st0" d="M458,77.6l-2.6,6.4h-9.8l14.1-31.9h10.6l14,31.9h-9.8l-2.6-6.4H458z M469.6,72.1l-4.7-11.6l-4.7,11.6H469.6z"
			/>
	</g>
	<g>
		<path class="st0" d="M54.9,105.3l10.5,15.2L76,105.3h14.7l-18,26.2v22.1H58.8v-21.9l-18.3-26.5L54.9,105.3L54.9,105.3z"/>
		<path class="st0" d="M101.6,143.9l-3.8,9.8H83.6l20.3-48.4h15.3l20.2,48.4h-14.2l-3.7-9.8H101.6z M118.3,135.5l-6.7-17.6
			l-6.8,17.6H118.3z"/>
		<path class="st0" d="M145.7,105.3h12.6l14.1,18.1l14.2-18.1h12.6v48.4h-13.8v-28l-12.5,16.2h-1.1l-12.6-16.2v28h-13.4V105.3
			L145.7,105.3z"/>
		<path class="st0" d="M222.5,143.9l-3.8,9.8h-14.2l20.3-48.4h15.3l20.2,48.4h-14.2l-3.7-9.8H222.5L222.5,143.9z M239.2,135.5
			l-6.7-17.6l-6.8,17.6H239.2z"/>
		<path class="st0" d="M279.3,105.3l23.7,26.8v-26.8h13.8v48.4h-12.3l-23.8-26.9v26.9h-13.7v-48.4L279.3,105.3L279.3,105.3z"/>
		<path class="st0" d="M361.2,105.3V127l16.6-21.6h15.1L375.8,128l19.9,25.7h-16.9L361.2,131v22.6h-13.8v-48.4L361.2,105.3
			L361.2,105.3z"/>
		<path class="st0" d="M414,105.3v22.9c0,10,4.4,13.9,10.4,13.9c5.9,0,10.4-3.9,10.4-13.9v-23h13.8V132c0,17.4-14,22.3-24.2,22.3
			s-24.3-4.9-24.3-22.3v-26.7L414,105.3L414,105.3z"/>
		<path class="st0" d="M504.4,105.3v11.8h-16.8v36.6h-13.8v-36.6h-16.8v-11.8L504.4,105.3L504.4,105.3z"/>
		<path class="st0" d="M526,105.3l3.1,4.1c1.6,2,4.3,5.8,6.5,8.8c1.8-2.9,3.7-5.6,5.8-8.3l3.6-4.6h17.4l-17.8,23.2l20.2,25.1h-17.8
			l-4.9-6.1c-0.5-0.7-4.6-5.7-6.4-8.3c-3.8,5.4-4.8,6.7-6.5,8.9l-4.2,5.4h-17.5l19.5-25.1l-18.6-23.2L526,105.3L526,105.3z"/>
	</g>
	<g>
		<path class="st0" d="M680.7,45.1c2.9-2.6,6.1-4.9,9.7-6.5c0.6,0.4,1.3,0.7,1.9,1.1c-1.3,0.9-2.7,1.7-4.1,2.4c-0.9,0.5-2,0.4-2.9,1
			c-1.7,1.1-3.4,2.4-4.4,4.2c2.7-0.1,5.2-1.2,7.7-1.9c0.6-0.2,1.6,0,1.4,0.8c-0.1,0.7-0.4,1.3-0.8,1.8c-1.5,1.8-3.4,3.3-5.4,4.5
			c-1.2,0.7-2.6,1.2-3.9,1.4c0.3-0.6,0.6-1.2,1.2-1.6c1.9-1.5,4-2.8,5.7-4.7c-2.4,0.6-4.5,1.7-6.9,2.2c-1.1,0.3-1.6-1.1-1.4-1.9
			C678.8,46.7,679.8,45.9,680.7,45.1L680.7,45.1z"/>
		<path class="st0" d="M670.5,42c1.4-1.2,3.1-2.4,5.1-2.6c0.7-0.1,1.7,0,2.1,0.7c0.6,1.2,0.4,2.7-0.3,3.9c-0.9,1.5-2.3,2.7-3.7,3.7
			c-2.1,1.5-4.5,2.8-7,3.3c-0.8,0.1-0.7,1.4,0,1.7c0.9,0.5,2,0,2.9-0.3c2.7-1.2,5-3,7.6-4.6c0.3,0.1,0.6,0.3,0.8,0.4
			c-1.5,2.2-3.7,3.8-6,5.1c-1.7,1-3.8,1.9-5.8,1.1c-1.5-0.6-2.1-2.4-1.4-3.9c-0.1-0.5-0.8-1.1-0.3-1.7c0.3-0.2,0.6-0.3,0.9-0.4
			C666.5,46,668.3,43.8,670.5,42L670.5,42z M671,43.4c-1.5,1.4-3,3.1-3.5,5.1c2.6-0.5,4.7-2.1,6.7-3.7c0.8-0.8,1.7-1.6,2.1-2.6
			c0.2-0.4,0.1-1.1-0.4-1.1C674,40.9,672.3,42.2,671,43.4L671,43.4z"/>
		<path class="st0" d="M617.2,44.5c0.6-1.1,1.8-1.7,3-1.7c8.5,0,17,0,25.5,0c1.4-0.1,2.8,0.6,3.5,1.8c9.2,15,18.4,29.9,27.6,44.8
			c-4-0.8-7.6-3.4-9.4-7c-5.3-9.2-10.7-18.4-16.1-27.5c-1-1.8-3.1-2.9-5.1-2.6c-1.8,0.2-3.5,1.5-4,3.3c-0.4,1.3-0.1,2.7,0.6,3.9
			c6.1,10.4,12.2,20.9,18.3,31.3c0.4,0.7,1,1.3,0.9,2.2c0,6.9,0,13.9,0,20.8c-5.4-10-10.7-20.1-16.2-30.1c-0.1,14.4,0,28.9,0,43.3
			c0,1.8-1.6,3.3-3.3,3.3c-7.5,0-14.9,0-22.4,0c-1.5,0.1-3-1-3.4-2.5c-0.2-0.9-0.1-1.9-0.1-2.8c0-25.7,0-51.4,0-77.1
			C616.8,46.8,616.6,45.5,617.2,44.5L617.2,44.5z"/>
		<path class="st0" d="M708.3,43.5c0.7-0.5,1.5-0.7,2.4-0.7c8.6,0,17.2,0,25.8,0c1.8-0.1,3.5,1.5,3.5,3.3c0,26.8,0,53.7,0,80.5
			c0.2,1.9-1.6,3.7-3.5,3.6c-7.5,0-14.9,0-22.4,0c-1.7,0.1-3.4-1.5-3.3-3.3c0-14.5,0-29,0-43.5c-5.1,9.5-10.2,19.1-15.4,28.6
			c0-6.6,0-13.1,0-19.7c6.4-11,12.8-21.9,19.3-32.9c1.1-1.7,0.9-4.1-0.5-5.6c-1.4-1.6-3.8-2-5.7-1.1c-1.1,0.5-2,1.4-2.6,2.5
			c-5.4,9.3-10.8,18.5-16.2,27.8c-2,3.6-5.8,6.1-9.9,6.6c8.8-14.5,17.7-29,26.5-43.5C706.9,45.1,707.4,44.1,708.3,43.5L708.3,43.5z"
			/>
		<path class="st0" d="M675.9,63.1c4.3-1.3,9.3,0.9,11.1,5c2,4.1,0.6,9.5-3.2,11.9c-3.7,2.6-9.2,2-12.2-1.3
			c-3.1-3.2-3.4-8.6-0.7-12.2C672.2,64.9,674,63.6,675.9,63.1z"/>
	</g>
	<g>
		<path class="st1" d="M605.3,161.2c48.6,0,97.1,0,145.7,0c0,0.6,0,1.3,0,1.9c-48.6,0-97.1,0-145.7,0
			C605.3,162.5,605.3,161.9,605.3,161.2z"/>
		<path class="st2" d="M633.6,136.6c0.2,0,0.4,0.1,0.6,0.2c0.2,0.2,0.2,0.3,0.2,0.5v18.5c0,0.2-0.1,0.4-0.2,0.5
			c-0.2,0.2-0.3,0.2-0.6,0.2h-5.1c-0.2,0-0.4-0.1-0.6-0.2c-0.2-0.2-0.2-0.3-0.2-0.5v-10l-5.5,10.3c-0.1,0.1-0.2,0.2-0.3,0.3
			c-0.1,0.1-0.3,0.1-0.4,0.1h-2.4c-0.1,0-0.2,0-0.4-0.1c-0.1-0.1-0.2-0.2-0.3-0.3l-5.5-10.3v10c0,0.2-0.1,0.4-0.2,0.5
			c-0.2,0.2-0.3,0.2-0.6,0.2H607c-0.2,0-0.4-0.1-0.6-0.2c-0.2-0.2-0.2-0.3-0.2-0.5v-18.5c0-0.2,0.1-0.4,0.2-0.5
			c0.2-0.2,0.3-0.2,0.6-0.2h6c0.1,0,0.2,0,0.4,0.1c0.1,0.1,0.2,0.2,0.3,0.3l6.7,10.8l6.6-10.8c0.1-0.1,0.2-0.2,0.3-0.3
			c0.1-0.1,0.3-0.1,0.4-0.1H633.6z"/>
		<path class="st1" d="M636.2,156.6c-0.2,0-0.3-0.1-0.5-0.2c-0.1-0.2-0.2-0.3-0.2-0.5v-18.5c0-0.2,0.1-0.4,0.2-0.5
			c0.1-0.2,0.3-0.2,0.5-0.2h4.7c0.2,0,0.3,0.1,0.5,0.2c0.1,0.2,0.2,0.3,0.2,0.5v18.5c0,0.2-0.1,0.4-0.2,0.5
			c-0.1,0.2-0.3,0.2-0.5,0.2H636.2z"/>
		<path class="st2" d="M649.8,146.8c0,0.8,0.1,1.5,0.4,2.1c0.3,0.6,0.7,1.2,1.2,1.6c1.1,0.9,2.6,1.4,4.5,1.4c1.3,0,2.6-0.2,3.8-0.5
			h-0.1c0.6-0.2,1.2-0.4,1.7-0.5c0.5-0.2,1-0.3,1.4-0.5c0.3-0.1,0.5-0.1,0.7,0.1c0.2,0.2,0.3,0.4,0.3,0.7l-0.1,3.8
			c0,0.1-0.1,0.3-0.2,0.4c-0.1,0.1-0.2,0.2-0.4,0.3c-1.2,0.4-2.5,0.7-3.8,0.9c-1.4,0.2-2.9,0.3-4.5,0.3c-3.8,0-6.7-0.9-8.8-2.6
			c-2.2-1.7-3.3-4.2-3.3-7.5c0-1.7,0.3-3.3,0.8-4.6c0.5-1.3,1.3-2.4,2.3-3.3c1-0.9,2.3-1.6,3.8-2.1c1.5-0.5,3.2-0.7,5.1-0.7
			c1.7,0,3.1,0.1,4.4,0.3c1.3,0.2,2.4,0.5,3.3,0.8c0.1,0,0.3,0.1,0.4,0.3c0.1,0.1,0.2,0.3,0.2,0.4l0.3,3.8c0,0.3-0.1,0.5-0.3,0.7
			c-0.2,0.2-0.5,0.2-0.7,0.1c-0.7-0.3-1.7-0.6-2.9-0.9c-0.6-0.2-1.2-0.3-1.7-0.4c-0.6-0.1-1.1-0.1-1.7-0.1c-1.9,0-3.4,0.5-4.5,1.5
			C650.3,143.6,649.8,145,649.8,146.8L649.8,146.8L649.8,146.8z"/>
		<path class="st2" d="M685.9,154.4c-2,1.7-5,2.6-9,2.6c-3.9,0-6.9-0.9-9-2.6c-2-1.7-3-4.3-3-7.8c0-3.5,1-6.1,3-7.8
			c2-1.7,5-2.6,9-2.6c3.9,0,6.9,0.9,9,2.6c2,1.7,3,4.3,3,7.8C688.9,150.1,687.9,152.7,685.9,154.4z M680.6,143.3
			c-0.8-0.7-2.1-1.1-3.7-1.1c-1.6,0-2.8,0.4-3.6,1.1c-0.8,0.7-1.3,1.8-1.3,3.3c0,1.5,0.4,2.6,1.3,3.3c0.8,0.7,2.1,1.1,3.6,1.1
			c1.6,0,2.8-0.4,3.7-1.1c0.8-0.7,1.3-1.8,1.3-3.3C681.9,145.1,681.4,144,680.6,143.3z"/>
		<path class="st2" d="M711,154.4c-2,1.7-5,2.6-9,2.6c-3.9,0-6.9-0.9-9-2.6c-2-1.7-3-4.3-3-7.8c0-3.5,1-6.1,3-7.8c2-1.7,5-2.6,9-2.6
			c3.9,0,6.9,0.9,9,2.6c2,1.7,3,4.3,3,7.8C714.1,150.1,713,152.7,711,154.4z M705.7,143.3c-0.8-0.7-2.1-1.1-3.7-1.1
			c-1.6,0-2.8,0.4-3.6,1.1c-0.8,0.7-1.3,1.8-1.3,3.3c0,1.5,0.4,2.6,1.3,3.3c0.8,0.7,2.1,1.1,3.6,1.1c1.6,0,2.8-0.4,3.7-1.1
			c0.8-0.7,1.3-1.8,1.3-3.3C707,145.1,706.6,144,705.7,143.3z"/>
		<path class="st2" d="M722.2,149.5v6.4c0,0.2-0.1,0.4-0.2,0.5c-0.2,0.2-0.3,0.2-0.6,0.2H716c-0.2,0-0.4-0.1-0.5-0.2
			c-0.2-0.2-0.2-0.3-0.2-0.5v-18.5c0-0.2,0.1-0.4,0.2-0.5c0.2-0.2,0.3-0.2,0.5-0.2h7.5c1.6,0,3,0.1,4.3,0.3c1.2,0.2,2.2,0.6,3.1,1.1
			c0.8,0.5,1.4,1.2,1.9,2c0.4,0.8,0.6,1.8,0.6,2.9c0,2.3-0.7,3.9-2.1,5c-1.4,1.1-3.5,1.6-6.3,1.5L722.2,149.5L722.2,149.5z
			 M722.1,141.3v3.6l1.3,0.1c2.1,0.1,3.1-0.5,3.1-1.9c0-0.6-0.3-1.1-0.8-1.5c-0.5-0.3-1.2-0.5-2.1-0.4L722.1,141.3z"/>
		<path class="st2" d="M735.2,156.6c-0.2,0-0.4-0.1-0.5-0.2c-0.2-0.2-0.2-0.3-0.2-0.5v-18.5c0-0.2,0.1-0.4,0.2-0.5
			c0.2-0.2,0.3-0.2,0.5-0.2H750c0.2,0,0.4,0.1,0.5,0.2c0.2,0.2,0.2,0.3,0.2,0.5v3.7c0,0.2-0.1,0.4-0.2,0.6c-0.2,0.2-0.3,0.2-0.5,0.2
			h-8.6v2h7.3c0.2,0,0.4,0.1,0.5,0.2c0.2,0.2,0.2,0.3,0.2,0.5v3.7c0,0.2-0.1,0.4-0.2,0.6c-0.2,0.2-0.3,0.2-0.5,0.2l-7.3,0v2.1h9.3
			c0.2,0,0.4,0.1,0.5,0.2c0.1,0.2,0.2,0.3,0.2,0.6v3.7c0,0.2-0.1,0.4-0.2,0.5c-0.1,0.2-0.3,0.2-0.5,0.2H735.2L735.2,156.6z"/>
	</g>
	<g>
		<path class="st0" d="M151,167.6h309.4c13.1,0,23.8,10.7,23.8,23.8v0c0,13.1-10.7,23.8-23.8,23.8H151c-13.1,0-23.8-10.7-23.8-23.8
			v0C127.2,178.3,137.8,167.6,151,167.6z"/>
		<g>
			<path class="st3" d="M173,196.6h-10.1l-1.9,4.6h-5.1l9.7-21.7h5l9.7,21.7h-5.3L173,196.6L173,196.6z M171.4,192.8l-3.4-8.3
				l-3.4,8.3H171.4z"/>
			<path class="st3" d="M199.1,191.7v9.5h-4.8v-8.8c0-2.7-1.2-3.9-3.4-3.9c-2.3,0-4,1.4-4,4.5v8.2h-4.8v-23h4.8v8
				c1.3-1.3,3.2-2,5.3-2C196.1,184.4,199.1,186.7,199.1,191.7L199.1,191.7z"/>
			<path class="st3" d="M202.4,192.9c0-5,3.9-8.6,9.2-8.6c5.3,0,9.1,3.6,9.1,8.6c0,5-3.8,8.6-9.1,8.6S202.4,198,202.4,192.9z
				 M215.8,192.9c0-2.9-1.8-4.6-4.2-4.6s-4.3,1.7-4.3,4.6c0,2.9,1.9,4.6,4.3,4.6S215.8,195.8,215.8,192.9z"/>
			<path class="st3" d="M234.2,184.4v4.5c-0.4,0-0.7-0.1-1.1-0.1c-2.7,0-4.4,1.5-4.4,4.6v7.9h-4.8v-16.7h4.6v2.2
				C229.7,185.2,231.7,184.4,234.2,184.4L234.2,184.4z"/>
			<path class="st3" d="M247.5,184.4v4.5c-0.4,0-0.7-0.1-1.1-0.1c-2.7,0-4.4,1.5-4.4,4.6v7.9h-4.8v-16.7h4.6v2.2
				C242.9,185.2,244.9,184.4,247.5,184.4z"/>
			<path class="st3" d="M248.9,192.9c0-5,3.9-8.6,9.2-8.6c5.3,0,9.1,3.6,9.1,8.6c0,5-3.8,8.6-9.1,8.6
				C252.8,201.5,248.9,198,248.9,192.9z M262.3,192.9c0-2.9-1.8-4.6-4.2-4.6c-2.4,0-4.3,1.7-4.3,4.6c0,2.9,1.9,4.6,4.3,4.6
				C260.5,197.6,262.3,195.8,262.3,192.9z"/>
			<path class="st3" d="M268.8,199.7l1.6-3.5c1.5,1,3.7,1.6,5.8,1.6c2.2,0,3.1-0.6,3.1-1.5c0-2.7-10.1,0.1-10.1-6.6
				c0-3.2,2.8-5.4,7.7-5.4c2.3,0,4.8,0.5,6.4,1.5l-1.6,3.4c-1.6-0.9-3.3-1.2-4.8-1.2c-2.2,0-3.1,0.7-3.1,1.5
				c0,2.8,10.1,0.1,10.1,6.7c0,3.1-2.9,5.3-7.9,5.3C273.2,201.5,270.4,200.7,268.8,199.7L268.8,199.7z"/>
			<path class="st3" d="M312.2,184.6l-7.5,17.7c-1.6,4-3.9,5.2-6.9,5.2c-1.7,0-3.6-0.6-4.6-1.5l1.8-3.4c0.7,0.6,1.8,1.1,2.7,1.1
				c1.3,0,2.1-0.6,2.7-2.1l0.1-0.2l-7.2-16.8h5l4.7,11.3l4.7-11.3L312.2,184.6L312.2,184.6z"/>
			<path class="st3" d="M321.9,190.4c0-6.5,5-11.2,11.8-11.2c3.7,0,6.9,1.4,8.9,3.8l-3.2,3c-1.5-1.7-3.3-2.5-5.4-2.5
				c-4.1,0-6.9,2.8-6.9,6.9c0,4.1,2.9,6.9,6.9,6.9c2.2,0,4-0.9,5.4-2.6l3.2,3c-2,2.5-5.2,3.9-8.9,3.9
				C326.9,201.6,321.9,197,321.9,190.4L321.9,190.4z"/>
			<path class="st3" d="M355.9,184.4v4.5c-0.4,0-0.7-0.1-1.1-0.1c-2.7,0-4.4,1.5-4.4,4.6v7.9h-4.8v-16.7h4.6v2.2
				C351.4,185.2,353.4,184.4,355.9,184.4z"/>
			<path class="st3" d="M374.9,194.3h-12.6c0.5,2.1,2.2,3.3,4.8,3.3c1.8,0,3-0.5,4.2-1.6l2.6,2.8c-1.5,1.8-3.9,2.7-6.9,2.7
				c-5.8,0-9.5-3.6-9.5-8.6c0-5,3.8-8.6,8.9-8.6c4.9,0,8.7,3.3,8.7,8.6C375,193.4,374.9,193.9,374.9,194.3z M362.2,191.5h8.2
				c-0.3-2.1-1.9-3.5-4.1-3.5C364.1,188,362.6,189.3,362.2,191.5L362.2,191.5z M367.2,182.5h-3.8l4.2-4.5h5.2L367.2,182.5z"/>
			<path class="st3" d="M395.1,178.3v23h-4.6v-1.9c-1.2,1.5-3,2.2-5.2,2.2c-4.7,0-8.3-3.3-8.3-8.6c0-5.2,3.6-8.6,8.3-8.6
				c2,0,3.8,0.6,5,2v-8.1H395.1L395.1,178.3z M390.4,192.9c0-2.9-1.9-4.6-4.2-4.6c-2.4,0-4.3,1.7-4.3,4.6c0,2.9,1.9,4.6,4.3,4.6
				C388.6,197.6,390.4,195.8,390.4,192.9z"/>
			<path class="st3" d="M399,179.6c0-1.5,1.2-2.7,3-2.7c1.8,0,3,1.1,3,2.6c0,1.6-1.2,2.8-3,2.8C400.2,182.3,399,181.1,399,179.6z
				 M399.6,184.6h4.8v16.7h-4.8V184.6z"/>
			<path class="st3" d="M419.7,200.5c-1,0.7-2.4,1.1-3.9,1.1c-3.9,0-6.2-2-6.2-6v-6.8h-2.6V185h2.6v-4.1h4.8v4.1h4.1v3.7h-4.1v6.8
				c0,1.4,0.8,2.2,2.1,2.2c0.7,0,1.4-0.2,1.9-0.6L419.7,200.5L419.7,200.5z"/>
			<path class="st3" d="M420.6,192.9c0-5,3.9-8.6,9.2-8.6s9.1,3.6,9.1,8.6c0,5-3.8,8.6-9.1,8.6S420.6,198,420.6,192.9z M434,192.9
				c0-2.9-1.8-4.6-4.2-4.6c-2.4,0-4.3,1.7-4.3,4.6c0,2.9,1.9,4.6,4.3,4.6C432.2,197.6,434,195.8,434,192.9z"/>
			<path class="st3" d="M440.5,199.7l1.6-3.5c1.5,1,3.7,1.6,5.8,1.6c2.2,0,3.1-0.6,3.1-1.5c0-2.7-10.1,0.1-10.1-6.6
				c0-3.2,2.8-5.4,7.7-5.4c2.3,0,4.8,0.5,6.4,1.5l-1.6,3.4c-1.6-0.9-3.3-1.2-4.8-1.2c-2.2,0-3.1,0.7-3.1,1.5
				c0,2.8,10.1,0.1,10.1,6.7c0,3.1-2.9,5.3-7.9,5.3C444.9,201.5,442.1,200.7,440.5,199.7L440.5,199.7z"/>
		</g>
	</g>
</g>
</svg>
